/* XPM */
static char *result[] = {
/* columns rows colors chars-per-pixel */
"64 64 63 1 ",
"  c #3C352B",
". c #3F382E",
"X c #40392F",
"o c #443C33",
"O c #483F36",
"+ c #474036",
"@ c #484037",
"# c #4C443B",
"$ c #4F483E",
"% c #50473E",
"& c #50483F",
"* c #544C43",
"= c #584F46",
"- c #575047",
"; c #585047",
": c #575048",
"> c #5C544B",
", c #5F584F",
"< c #5F5850",
"1 c #60574F",
"2 c #60584F",
"3 c #645C53",
"4 c #685F57",
"5 c #675F58",
"6 c #685F58",
"7 c #686057",
"8 c #6C645B",
"9 c #70675E",
"0 c #71685F",
"q c #706760",
"w c #746B62",
"e c #786F66",
"r c #776F68",
"t c #786F68",
"y c #797067",
"u c #7C736B",
"i c #80776E",
"p c #81786F",
"a c #847B73",
"s c #887F76",
"d c #8A8077",
"f c #8C837A",
"g c #91867D",
"h c #92887F",
"j c #958B82",
"k c #998F85",
"l c #9A9087",
"z c #9D938A",
"x c #A1968D",
"c c #A3988F",
"v c #A69C92",
"b c #A99E94",
"n c #ACA097",
"m c #AEA299",
"M c #B2A59C",
"N c #B5A89E",
"B c #B7AAA0",
"V c #B9ACA2",
"C c #BDB0A5",
"Z c #C2B4AA",
"A c #C7B8AE",
"S c #CEBFB4",
"D c #D1C1B6",
/* pixels */
"jlzh69xzzzzzzkkkkkkkzkkh4sNMbxbbbbbvvbzzz73VBbcbvvvvcbvvvvvvbvzz",
"lzlj1kzzzzzzkkzkkkkzkkkh4iNxzzxxxxcczmczz3pAnbvvzzzzjvzxzzxczzzz",
"jbld>kjzkkkkzkkkzzlkkhhg*Xwlzzlkzzzzzczlz,hBbvvckvzjzxxxcbBzzzzz",
"kzdu1zzzkkkkkzkhsieq911>ooX*>449ispujfjfd@jCvbbzjvzzzxxvvcjkzzzz",
"jau=*pssgjd993;%oO8ijjjjkhiggsieqq513<:*@+dAzvczzzzzzzzzzljbzljz",
"q3*  o*1<1>>>>>% >jBMbBMMMMMMMNMMmvbvkjp#.qaznzdadddjdddssauuura",
"56qpjkzzcvjfjkjpo8mBMbBMMxMMMMcmMmMMMMmj->-yuy7*8833>>>::***>>5q",
"cvvbczzzzzzzzklkw*sbbbbmmmMnnmnbvkccccza>>$->>,777788qqq< .rjvMm",
"lzzxxxzkzzzzzkkku#6jbzzzzzzzzzzzzxczljfq$ukzzzzzzzjzzzzzj.ubczxz",
"lzxvzzzzzzczzkkkjd=rcbxzzkjjzzzzkfuw<3<.+azzzzzzzzkkzkjkuojzzzlz",
"kzzzzzzzzxckzkkkjkq=wpfsatw888wt88q8qrr>.avzzhzzzzzzkkkjq#jjlzlz",
"lzzzjkzklvljgkjjfu=.  *iafzbCCBBMvbcncvx:azzzkzzzkkzkkjjf:sjzzzz",
"klllkkkkzkkggfe838uu5*mCBMBMbbbcvbvvvvcx78dhffhdfkkkkkfkj<sxzlzl",
"jjlkkkkkhfaq68qijzzzs:bvckbcvvvcmBmbcnbl8 .+$:-#*ajjkkjgu*8jllkl",
"jkzxclfr36wafjkkzzjzfacbvvbbcbvvbvbvzcxzj$rggp0#.o*:qrw:o.uvlkzz",
"ljsu813welzlkkkzzzlzfavcvbvvbvbvbvlczzzcj7hBNNNzgvcjaw>+..fbxbcb",
"3>1qsfkkkkkkzkkzzzzjianvbccxxxxzzzzzzzzxk3dBmmBmMMMmMvMvg*abckga",
"wudkkkjlzzzzzkkzzzkw#9NcxzxzzkcxnMNbcxja8*rBBBmBMMMbMMBMb83r8>*<",
"jjlzzzlzxkzkkkzkkkh4X=vVBBbxkjsa4%33>O@@Oo<MbbmbbMMMMcfbxt O6iss",
"llzzzlzzkkkjkzlkjji*8##witq63>:# *xxxghjgu:kxzzzccvvczfcj6*ajkzx",
"dkcclujjgfsipiw6>=# O#;85#ajcvbz31Nbzzxzzh4wflzlzkxjjzzsrO*qtaaa",
">>><*.oO%499wttiasflvMMMmkbBBMbMj*hcllllkjwowfkkjjqtqut6>153O*1<",
"ujfddw..gMMMNMBBNNMNMMMMMBBbmBMMn4tklhfgha%.#<<3>:oo <ajlzxzaakf",
"lzxzzj>uNxbMMMMMMNmMMbbNBccBvzMMm3*ia8;120sajzzzkag8.szzzzzzjlzz",
"kkzzzk3kMxbMBMMMbNkkMbbmbmmmbkMMviXoO;wgzzzzjzzzzlxh#allzzzkzzzz",
"jjzkkj>cBMMMMMMMMnvxzzzzzzzzzxzzxa**fxzzklzzjzzlzzlh&0lxzzzkkkkz",
"jkkkku*bbBBMMbbvxzzzzzzzzzzzzzzzks19xzzzhjzzzzzlzzzh*axlljkkllkk",
"jkkklu+7ubvxxcvczzzzzzzkzzxvczlji3O*kzzxzlzzklzlzlhf*yllzzlzzkkk",
"jjjur:O+<fxbbvjfgllzzzzcvzkjjja5O*0+ixzzllzlzllhhhfd%X>8phhfkkjj",
"<:>:wdw<#**>48q1uagjjgfu7=*<**o  #>+#afadddpuy083>-$X   X@#3uiau",
"<.jzMCACBxa>OXX .oO*%O.ooO#**#<533780qwq7+$oX. Xe&ufgfwufsuq>,23",
"sOzbjmnmvvbMbjairuurO.wzzlxzjfzzvbnbcxcjcaljai>;MhzNMMMNMMMbjjzb",
"3ovCbvbmnvnvvvvbvvvc&8Nxzzzjzzzxlkvlzzzzzzkzzze1NMnMxMMMMbcMbmMm",
"d#rCnnBnvvvvbvbbvvvh&3mxkzzzhznzlkzzzlzzzzzzzzt#cNMMMMbkMMnMMMMn",
"j*uVzNmcvvvvcvkcxzzi##xbzzczzzzllllllacllljzzki1VNMMMMMbnMnvzxxz",
"j#aCvzzvzzczzzxlzzzh>#bxzczzzllkkklkkfclkkkkjkt>VMbMNkxzxzzzzzzz",
"p#wmmzzzzkzzxllxzzzh>+xzczzkklkhllzkklzlljjgjj1*bNNMbkzzkzkzzgjj",
"#**6flzzCMNmbhuddu0,X.enjzlkklkkjgkxljflxczjaw X=344sggfgfgga811",
" ,3o$8y<aauu01XO#0dddw#eeMmnMvxhu858>*>36631>==>1%XX%*=>>>**OX  ",
"ffu0*$*#o...OwghxBBMMMp9$dlfu7>$>7ua8 .O*1qwscmMMcw99*  1iipp9is",
"jzzzdjlkhdp0*mNMMMnMMMnnk>>>9djajzcza#sbbsxkBmcMMcjmMw.#scxzklzz",
"kzzzzdklhhzu&xMMmnnnxmMMmu>xzlzzjzld1aMMNjmNBMMcMMMMj*+uxxzzzzxz",
"kkzzzkzzzlly*gMmnzlzxnbcz0yzkgghkjf3uMMMMbbMMMMMMMMveoqlzzzzzzlz",
"jkkllzxzzzzh>hMnlhcvccxhu-7w8>77>*+3nMMNbxzzzxccxzla#&uhjlkkkkjj",
"jkjjkzzflzxl;8ddw>>81&=;--20rdggu> 2vMMNzxzzkzzzjzj3oazkazkjjkjk",
"jkkklllklhlh>.X&28ii0dhhzzzzzzzzzuo#umMbzzzzzzzzlkqX,kzljkkkkkkk",
"jllkllkklllh22hllzzxxhlzzzzzfzkkja*okbxxxbbvczsss8. oyadaudkkkjj",
"8pfkklaflhkd,ybxhzzlllllkkkkjkkkhjw@dblszbkpw4>*o X  .ooooO*>138",
"q0,Xo&&20pdd,8zcljjjjjjzkhzzkkjfjfu*>3>#oo.o*,8ysjjsu8# *waaaauy",
"zzs$#7;yw3@@+=887:8q0880w000088883*. X%3w8fbzzvnvxzzzk8>avzzvzzz",
"lzh02ngxzxjdauy87,:+8:rduuw07-073>*XXhMxlzvzvzzzzzzjkzw#wczkzzzz",
"klzg1lxlzzzzzlzlzlj:*dzzczzzzjzzljf; uMvzzzzzzzlzzzlzzw=scklljjl",
"jkzl2gllljlkljzzzll<>cljzzzzzzzzfzlw 3bkczzzzzzczxzkzk3Oufjjjljl",
"ddafw0zklcllllllllj7<jlzzzzzkzzzllduo>bzzzzllzlzxlkjseO**;>330dj",
"**##&.#&&widhjhfhlf3#rlzzzzzzzzzllkf3+dvzllklkkkkkkkp*wxckfw8>#*",
"aczlughu&X@33,,,,<: *lzlkzkjhkkklkkka.8vvzkkzzvnvkka84xMMMMmMmz$",
"cMmvmvbvh8kllzkkjd> *jljkkkkkkklklllf&*fkazzzkdajju8.7zlzgzxxxz<",
"wfjklllka2kxzkjjjjuo+sjjjkzzlkkllkfhf< =78jkga0**+ ...*:>368wur3",
">>><<8q8* *883333>*++><<<379888qwuurrO.*##+#:ugduw88888*43333365",
"jujf< *qpfh9jlxzzkdlfsq* #0uurw3#:*$#o#>wr$#jAVVCADCBvxzxxcccccx",
"lzbvu3zzlzzkzxzzzzzzzzld+fNnMnnnfccxljfw*+o:uMnnbbMNMMMnnnbbbbbv",
"lbvvjuclkzzzzzzfxzzzzzzk*0Mnbbvbvcnclmbbj-*cDDCmvblbvnnnvmvvbbbv",
"cbvvduzzzzzczzlazzzzzzzl-jnvbvvnvvnnvvvvnq>cDmvccvnblcnnBmvvjMbv",
"lzzs3axzzzzzzzzzzzljzzzl>lvnbvvvvVmnvvzvzq:zCnvzxbvvvmMVCbvvsbcl"
};
