/* XPM */
static char *result[] = {
/* columns rows colors chars-per-pixel */
"64 64 239 2 ",
"   c #281E2B",
".  c #1F2837",
"X  c #2B242D",
"o  c #34242C",
"O  c #3B252C",
"+  c #3C2A2D",
"@  c #33282D",
"#  c #242533",
"$  c #2B2B34",
"%  c #292936",
"&  c #342B33",
"*  c #3C2B34",
"=  c #362935",
"-  c #2B3135",
";  c #2E343A",
":  c #2C363A",
">  c #3B3135",
",  c #32353C",
"<  c #333A3D",
"1  c #383337",
"2  c #3C312F",
"3  c #442B2D",
"4  c #4C2D2E",
"5  c #43272B",
"6  c #542D2D",
"7  c #4E312A",
"8  c #58332E",
"9  c #432D33",
"0  c #4B2D33",
"q  c #462F39",
"w  c #532E32",
"e  c #592E35",
"r  c #453234",
"t  c #4A3234",
"y  c #4B343B",
"u  c #4B3B3C",
"i  c #45343A",
"p  c #543334",
"a  c #5C3434",
"s  c #53343A",
"d  c #543B3B",
"f  c #5B3C3B",
"g  c #593737",
"h  c #663A38",
"j  c #753E3A",
"k  c #653A2F",
"l  c #5C413C",
"z  c #68463D",
"x  c #73423B",
"c  c #7B433C",
"v  c #794338",
"b  c #2F3841",
"n  c #343C42",
"m  c #383D45",
"M  c #4A3C41",
"N  c #563D44",
"B  c #703E41",
"V  c #364144",
"C  c #3B4549",
"Z  c #43484C",
"A  c #5D4345",
"S  c #584449",
"D  c #444D53",
"F  c #494F53",
"G  c #455256",
"H  c #495356",
"J  c #4C555A",
"K  c #4E595C",
"L  c #515C5E",
"P  c #52555B",
"I  c #644446",
"U  c #6B4A43",
"Y  c #65464A",
"T  c #6B4649",
"R  c #644B4C",
"E  c #6B4C4C",
"W  c #684844",
"Q  c #744D4D",
"!  c #784947",
"~  c #6E534C",
"^  c #6A514B",
"/  c #73544B",
"(  c #7A564C",
")  c #785449",
"_  c #654C52",
"`  c #6B4D53",
"'  c #784D51",
"]  c #6B5559",
"[  c #745454",
"{  c #7B5354",
"}  c #755A53",
"|  c #7B5C53",
" . c #74545A",
".. c #7B5659",
"X. c #7C5B5C",
"o. c #745B5C",
"O. c #545D62",
"+. c #585E63",
"@. c #7B5D60",
"#. c #556264",
"$. c #596366",
"%. c #5B6569",
"&. c #5D696B",
"*. c #586868",
"=. c #546769",
"-. c #616B6D",
";. c #62676E",
":. c #7D6265",
">. c #646D71",
",. c #6A6D74",
"<. c #667373",
"1. c #697576",
"2. c #6A7779",
"3. c #62706F",
"4. c #69625B",
"5. c #874B3C",
"6. c #94523E",
"7. c #824C45",
"8. c #894A44",
"9. c #885649",
"0. c #975849",
"q. c #815C53",
"w. c #825C5D",
"e. c #865657",
"r. c #9B5B54",
"t. c #995955",
"y. c #834F59",
"u. c #AA564C",
"i. c #AB5A4E",
"p. c #A3574A",
"a. c #B2584D",
"s. c #A35B54",
"d. c #AC5B52",
"f. c #A95955",
"g. c #B25C54",
"h. c #B25E59",
"j. c #B05652",
"k. c #84625C",
"l. c #8B665A",
"z. c #896659",
"x. c #946B5C",
"c. c #9B6E5C",
"v. c #956756",
"b. c #9D715D",
"n. c #89624F",
"m. c #A9634D",
"M. c #B5684E",
"N. c #AB6353",
"B. c #AB625C",
"V. c #A76756",
"C. c #B36156",
"Z. c #B4655C",
"A. c #B9645D",
"S. c #B4695D",
"D. c #B86B59",
"F. c #A0725D",
"G. c #AD725F",
"H. c #B8745D",
"J. c #855E61",
"K. c #846262",
"L. c #896465",
"P. c #84666A",
"I. c #8C6B6B",
"U. c #896967",
"Y. c #936D62",
"T. c #926E6D",
"R. c #986A63",
"E. c #967163",
"W. c #9C7363",
"Q. c #9C7669",
"!. c #9D796B",
"~. c #94726C",
"^. c #8B6D72",
"/. c #947272",
"(. c #967A7A",
"). c #8E726F",
"_. c #A96862",
"`. c #B66660",
"'. c #B46B63",
"]. c #B96B66",
"[. c #BB6D69",
"{. c #A37664",
"}. c #A37966",
"|. c #A27769",
" X c #A37B6B",
".X c #A97B69",
"XX c #BC746C",
"oX c #BC7A6E",
"OX c #B97564",
"+X c #A47E72",
"@X c #A97F70",
"#X c #BD7771",
"$X c #BC7972",
"%X c #BA7D79",
"&X c #C26D53",
"*X c #CE6F58",
"=X c #C67254",
"-X c #C97354",
";X c #C4755C",
":X c #CA765A",
">X c #CC7A5D",
",X c #C7785B",
"<X c #D27D5E",
"1X c #C6724E",
"2X c #C47B62",
"3X c #CD7D63",
"4X c #CE7F69",
"5X c #C47766",
"6X c #D27E63",
"7X c #D27C67",
"8X c #C17673",
"9X c #C17C74",
"0X c #C7787A",
"qX c #AA806E",
"wX c #A7806E",
"eX c #A58172",
"rX c #AB8675",
"tX c #AA867A",
"yX c #AC8978",
"uX c #B48978",
"iX c #B0907F",
"pX c #CD8165",
"aX c #CC826C",
"sX c #C5816A",
"dX c #D28165",
"fX c #D2846B",
"gX c #D5896E",
"hX c #C88676",
"jX c #D48C74",
"kX c #D98B75",
"lX c #D48D79",
"zX c #D78976",
"xX c #D8937B",
"cX c #757F81",
"vX c #7C8587",
"bX c #AA8C82",
"nX c #9C8380",
"mX c #C98582",
"MX c #D49A8A",
/* pixels */
"y r 9 9 9 * > 3 $ 9 h ! j x v v j j v j j k x ) / = % $ % % % % # # # % % % % b = 0 e g h h e h e e N e s s p s = = 9 t t s * X ",
"{ ........ . ./ 9 x OX5X2X2X,X2X3X5X3X*XH.s.D.sXv.> D L #.L O.O.O.O.O.O.G P D m y 8._._._.B.B.B.B.B.B.B.f.N.r.s.6 t Q } .. .] N ",
"X.k.k.k.k.K.I.w.9 5.sXxXkXkXlXlXkXzXgXdXpXV.pXfXv.> O.1.1.1.1.1.<.&.*.*.#.#.O.m a r.%XhX#X#X#X#X#X#X[.[.'.`.B.A.6 d P.L.L.J.J.` ",
"@.k.:.K.K.P.(.K.9 5.pXjXkXkXgXgXdXdX7X6X5XZ.fXfXv.u #.1.1.1.3.-.*.#.*.$.=.=.#.Z g s.mXmX#X0X8X8X].].`.`.Z.Z.i.A.6 u P.P.U.I.L. .",
"w.L.J.J.T./.I...0 8.aXlXjXzXfX7XdX6X7X:XpXH.xXxXv.u K 3.&.$.$.$.%.%.+.%.L O.#.D f _.hX$XoXXXD.Z.Z.Z.A.Z.g.d.i.h.7 A ).nXI.L.L.X.",
"X.J.J.L./.^.L.{ 9 ! aXjXfXpX7X7X<XdX>X>XpXsXjXxXQ.S G K L L #.#.+.O.+.O.D #.%.G E _.%X#XOX'.S.D.S.Z.C.d.u.u.u.h.7 A I.nX(./.L.@.",
"w.K.P.L.I.L.J.{ 9 c aXfX7X3XdX6X:X>X>XdXpXpXpXjXR.1 G L #.#.#.$.O.O.J H D *.;.P W _.XX].`.B.Z.Z.C.i.i.u.u.u.i.h.7 A K.P.(.K.J.J.",
"w.L.T.T.J.J.J.' 9 x 3X7XdX7X3X:X:XdXdXpXdXdXpXgXt.1 G #.$.$.$.$.%.%.%.+.J #.,.;.s f.D.S.S.`.A.d.i.i.u.u.i.u.u.g.7 A P.^.K.J.J.{ ",
"{ ..X...{ { ' Q 9 c :X6X>X,X>XpX7X7X3X7X6X6X,XpXn.2 G *.$.$.#.O.O.+.;.%.O.<.vXH 6 f.`.`.A.C.i.i.g.d.g.d.g.u.i.h.p f K.:.X.{ Q ' ",
"T T E _ T T T A + 7.m.D.V.OXsXsXfXhXhXhXhXhXsXjX} 1 C L *.&.&.*.;.;.;.;.;.J J m t 0.d.N.i.C.N.d.d.d.i.d.d.d.d.r.g y R U W T T T ",
"= 3 9 * 4 5 9 2 @ 4 h h p h h f w a k k k x k v t + r r u r * 1 % - - - - - - - & s t t t t d t w 6 8 8 p a 8 8 5 * t t t t t 9 ",
"= A ~ [ ) ~ / } / } 7.( [ W W W O 6 5.0.0.p.p.p.0.p.p.6.8.9.9.U # b n C V V < n < < n < n D $.- y R ~ / / [ u ( | X.| n.| k.o.l ",
"u x.}.Y._.|.|.F.F.}.}. X| eXx.| + x ;XjXkXkXkXlXkXjXjXjXfXdX>Xm.$ #.2.2.2.2.2.1.1.<.&.K L $.Z @ }  X|.{..XR.U ( F.{.{.{.F.}.b.( ",
"u E.W.~.|..X|.W.}.}.}.E.U.eXF.n.= c ;XjXjXxXjXkXkXlXlXjXjXfX>Xm.$ =.2.2.2.2.<.<.-.-.*.K #.*.G $ |  X}.{.E.q.I / x.W.}.|.}.}.b.) ",
"u E.!.!.{.{.{.|.!.}.~.U.eX XqXx.+ c ;XkXzXlXjXjXlXlXjXxXlXfX>XV.; %.2.2.<.3.=.$.$.$.L G #.&.H - | |. XY.l.Q.!.P./ k.E. X{.}.b.) ",
"y Y.Q.!.|.|.{.W.x.l.Y.eX X}.wXE.@ c ;XkXlXlXlXlXlXjXlXjXlXfX>Xm.$ ;.2.<.&.=.$.$.$.L K J $.%.H - ( |.Y.Y.+X X X!.!.( | Q.{.}.x.) ",
"y Y.}.!.E.| Y.Y.!.rX+X X|.|.@X!.+ c ;XkXlXlXjXjXjXjXjXgXgXpX,Xn.$ *.2.&.$.$.$.#.K O.#.*.K $.J - ~ x.W.!. X|.{.{.{. X~.( E.|.Q.) ",
"i x.}.E.| E.eX!.}.}.}. X|.Q.@X!.O v ,XjXlXjXjXgXfXfXgX7XpXfXpXr.$ #.&.*.$.$.L L #.$.$.$.L *.J - z b.|.Q.}.}. X{.|. X|.E.Y.|.+X~ ",
"r l.l.| !. X!.}.}.}.}.}.}.!.rXE.& j ;XpXpXpX3X3XdX6XdX>X>X>X;X0.$ K =.$.$.K L $.$.$.%.%.K #.J $ ^ E.F.}.|.{.}. X{.}.{. XeXwXeXU ",
"t ( q.W.}..X.XwXwXtXtXyXtXtXrXn.@ k ;X>XdX3X<X>X:X:X-X,X-X-X,Xm.$ G 4.L L L +.$.$.$.$.&.#.%.P = W b.}..X+X X X X.X X}.uXqXuXwXz ",
"@ d ~ / ( q.! c / z z z z / ~ A X l m.M.M.M.M.M.H.H.G.D.M.m.r.x # : : C O.O.J J +.#.O.J L +.J X S ~ q.z.q.q.q.9.| } | | ) | ^ r ",
"* 4 t t f d l u * @ r r r 2 9 > + r p d p g p d S S + 3 9 5 + = # # # # # # % # , > M i * > * = + 9 9 9 0 9 * O & * t t W / s 0 ",
"D.D.H.H.;XqXm.D.z 8 k.Y.z.E.E.U.x.Y.x.x.x.x.x. Xo.r A ^ ^ _ _ _ _ ` _ _ Y _ ` S N R.t.R.t.t.t.t.r.0.t.t.0.0.0.0.6 j M.OXsX;XD.&X",
"pXpXfXfXxXjXpX>Xx z wXrXrXrXrXrXyXrXyXrXeX X}..X/ 0 J.I.~./.~././.T.T.P.J.J.J.` ' %XmXmX9X#X8X#X9XoX8X5XXX`.h.g.6 7.aXlXlXjXjXjX",
"pXdXpXfXpXgX>X=Xj z wXyXrXrXrXrXrXrXyXrXrX@X|.{.) 0 J./.T.T.T.I.J.J.K.w.J.J.J.] p _.mX$X$X#X#XXX[.[.'.'.Z.S.g.C.8 0.pXxXjXlXjXfX",
"pX>XdXdXdXdX=X-Xj z wXyXrXrXrXrXrXrXrXrXiXtXE.{.) 0 ..I.I.U.L.k.k.J.K.K.w.w.J._ B _.$X$X#X#XXX'._._.`.`.Z.g.i.C.f 0.,XjXjXjXfXpX",
"<XdX<X:X-X-X-X*Xx z eXrXrXrXrXrXrXyXrXrXrX Xc.{.) t ' w.w.w.w.w.J.J.K.X.' J.J._ a V.oX8X[.].S.`.`.S.h.h.u.u.u.Z.a 0.=XjXjXfXpXdX",
"dX<X-X1X1X1X-X-Xx l wXrXrXrXrXrXqXeXwX+X.X|.x.{.E 0 T } { { X...X.{ ~ Y ` J.w.` p f.5XXX`.`.`.D.`.d.f.u.f.u.d.C.p 6.:XdXdXdX3XdX",
"1X=X=X=X-X-X*X*Xx l  X.X X X!.!. X X X}.Q.|.c.F.U 4 Q q.L.K.J.k.J.J.P.:.` X.K.` 6 f.'.Z.S.D.A.h.d.p.p.u.u.u.d.g.e 6.:XdXdXpXpX>X",
"1X-X-X1X-X-X-X-Xk l W.}.|.!.{.}.W.W.b.b.v.v.v.F.z 4 Q J.J.L.k...X.J.P.P.` @.^. .4 f.D.Z.A.A.g.j.u.u.u.u.u.u.u.d.a 0.<XdX<X>X>X=X",
"&X1XD.&X&X1XD.M.k W W.}.}.b.F.F.F.b.b.F.F.F.F.W.l * R X.J.:.P.P.P.P.I.P.:.o.:.S 0 f.A.A.Z.h.h.h.h.h.h.h.h.h.a.u.a 5.&X&X&X&X&X&X",
"8.6.6.5.8.c c v + u U ) / ~ / U U U z U U U x U 2 @ y A R _ R ] R R S A N r t q 6 c j v j c c j 5.c ! c c v v j O k 8.6.6.6.6.0.",
"X e e h h h h h N B B B h x ! j X > c c 7.8.! t h ) 8.5.7.! z d = y d d d l l l f f l l l z l > # : m < n , , , : : ; ; - $ ; $ ",
"w 8.B.B._.h.`.B.h._.s.h.d.s.i.i.5 x 2X:X:XH.v._.M.pX>X<XdX6X3Xm.4 ( x.E.E.W.E.E.E.E.b.E.x.l.k.u < J #.O.O.#.O.O.O.O.O.K J O.C n ",
"w t.#X8X$X$X$X$X#X$X$X$XOXB.a.Z.5 9.pX>XpXV.t.c.m.H.<XdXdXdXpXm.r | wXyXrXrXrXtXtXrXrXrXwXW.x.u V L #.%.-.$.%.%.%.%.$.J -.-.J n ",
"e t.8X0X#X8X8X#X0X#X8X0X].`.g._.5 9.pXpXD.H.4X4XV.9.qX>XdXdXpX0.r | eXtXtXtXtXtXtXtXtXrXeXQ.c.l V #.$.&.%.%.%.%.%.=.#.#.-.$.L V ",
"q t.#X#XoXoXoXoX#X$X$X9XOXZ.d.B.5 9.OXt.oXpXdX7XsXOX0.H.4X7X3X0.0 ( @XtXrXrXrXuXrXrXrXrXqXwXx.u m L %.$.%.%.#.O.L K +.1.$.$.$.V ",
"q s.#X8X#XoX$X$X#X#X9XXX'.Z.g.h.O ! t.'.pX6X3XpX>XpXOX9.OX6XsX0.9 ( @XrXrXrXrXrXrXyXrXrXwXb.x.l < L $.$.#.P P L +.-.-.-.$.$.-.V ",
"5 t.#X#XoXoXoXoXXX].S.`.Z.C.a.N.@ g OXpX6XdXpXfXdXdXpXuX0.6XaXt.r ( @XrXrXrXqX@XwX XwXwXF.F.x.t < L $.#.J %.%.-.$.$.;.;.$.$.1.< ",
"0 t.[.].'.'.XXXXZ.S.A.Z.A.h.g.f.+ z pXdXdXaXaXfXdXdX6XsXG.7XjXv.9 | |.@X.X}.}.}.}.!.wXyX}.b.x.r , J O.D &.%.%.$.$.-.3.3.-.-.1.V ",
"0 t.Z.Z.S.OX'.B.g.d.u.u.u.u.g.p.O j 3X3XaXaXjXxXpXaXpXdXlXlXxXm.t q.{.|.{.W.b.c.c. X.Xx.v.v.z.4 : D D $.%.%.%.$.$.-.1.vX2.cX1.< ",
"w t.Z.Z.OX'.Z.C.C.g.C.C.h.h.g.8.X h 2XsXsXaXxXMXhXhXsXpX5X5XD.0.t k.c.c.b.b.c.{.}.}.}.E.W.c.| 2 - < D K J K L O.L -.<.vX<.-.D , ",
"O 0 e h I s 0 w 9 9 9 9 0 0 0 3 . = p s g N f ~ ] e a t w 0 9 O # > r 9 i i 0 M S M r r 9 t r X $ $ & $ $ = $ % . , 1 M P M $ # ",
"B B ! ' B h B h 9 $ , n n b < < b b , , , 1 Z %.O.5 h j h h a a s p p p e g T Y = > y u M M y i i r t r y r 0 y @ 3 T ! 7.B s O ",
"A.S.S.'.`.Z.Z.g.h 1 $.<.2.1.1.<.<.3.<.3.*.G #.=.C f ,XfXgXgXjXlXzXlXlXaX4X2X3XV.4 / T.T./.T.T.T.~.T.T.I.U.K.w.q.5 B `.D.A.D.'.( ",
"Z.D.S.S.`.`.`.g.h 1 -.1.2.1.2.2.<.3.>.-.%.J $.$.Z g 3XxXjXhXlXlXgXhXfXdX6X7X6XN.0 [ T./././././.I.~.T.U.L.J.{ e.4 T `.`.A.A._.t.",
"Z.`.`.`.S.`.B.g.a < >.2.2.2.-.&.&.$.$.$.K G *.$.Z g >XjXjXsXpXaX7X7XdX7X7X<X3Xm.9 ' /.T.T.T.T.L.K.K.w.J.J.X.{ e.4 j Z.`.`.`.Z.f.",
"Z.`.Z.`.A.A.Z.g.h 1 ,.2.1.3.&.$.$.&.#.K L H #.$.D d =XfXfXaX3XdX6X3XpXaX;X6X3Xm.9 { /././.I.L.L.K.k.J.w...{ ' e.4 j B.`.`.`.`.B.",
"h.`.Z.`.A.`.S.g.h , -.1.-.*.$.$.$.L L #.$.L L #.Z g M.>X:X:X>X>X3X,XM.m.V.3XpXm.9 { T.T.L.L.K.J.L.w.{ { ' ' Q y.4 c B.`.`.`.`.Z.",
"Z.`.`.`.A.`.Z.d.a 1 &.-.$.&.$.$.K L $.*.$.#.L L F l 1X>X6X7X3X3XpX>XH.OXr.3XpXM.* ..T.J.w.K.w.J...{ ' { ' ' ( y.9 c Z.`.Z.`.`.Z.",
"h.`.Z.Z.h.`.g.a.p - +.*.#.#.L K $.$.$.*.$.#.K #.D f =X6X7XpX3X2XOXpXdXsXc.OXgXG.O  .J.J.K.w.{ ' ! ' { ( ! ' ' y.4 ! h.A.`.Z.h.f.",
"f.f.g.f.j.u.u.a.w - J #.#.#.K #.#.#.+.#.+.$.K -.Z g &X6XpXaX5X2X,XpXpXaX_.hXxXV.O ..R.R.w.e.e.e.e.q.e.y.( y.y.e.6 x Z.C.N.i.u.p.",
"8.8.5.5.5.7.! W * - n C C #.#.#.$.#.$.#.#.#.#.,.Z p v.M.H.OXOXOXOXH.G.H.'.c 0.9.w N T T Y I T R _ I Y Y E Y I N + e 8.5.8.8.8.8.",
"= 9 9 9 5 5 3 + @ $ 2 & & - & @ $ X 2 & > > 1 i * 3 a 8 8 g p p 4 p 8 a a p g 7 5 0 w w w w 0 9 = * = = & 1 = = % = 0 t r r 0 3 ",
"O _  . .{ {  .} { ..} ] I ` R d o t | l.l.l.l.v.l.l.l.z.z.z.n.~ 5 ! r.s.s.r.s.s.u.s.s.s.p.p.d.8 m G J J K G G D K L L L L L H n ",
"* X.@.@.K.K.K.k.k.k.K.K.` I...W o f c.rXrXyXrXrXrXrXrXrXeX}.b.( 4 s.oX9X$X$X#X#X#X#XXX[.Z.d.g.e Z +.%.%.%.D Z G O.%.L ;.;.$.L m ",
"> X.K.P.w.J.J.K.P.k.K. .^.K.w.E o f x.tXrXrXrXyXyXrXrXrXyX Xb.( w s.#X8X$X$X$X#X$X$X$X8XZ.i.h.e D %.%.O.O.O.;.O.C J +.+.;.,.O.V ",
"> X.K.P.I.P.I.J.J.K.X.X.P.K.K...o f R.rXrXrXrXyXiXiXrXrXtX.XF.( 0 s.#X8X$X#X#X$X0X%X9X9XS.i.h.a M %.K O.;.%.+.O.L D O.%.2.,.O.V ",
"* X.P.^.^.P. .:. .o.P.I.K.k.U.w.o f x.rXrXrXrXiXiXiXyXrXtX XF.( 0 s.#X8X$X$X#X9XuXhX$X9XS.i.B.p m J K %.%.%.%.%.O.%.J +.1.&.#.V ",
"*  .P.:.(.(.:.^.^.^.K.P.K.k.U.P.o f x.rXrXyXyXiXyXqXrXwX X}.c.) 4 s.$X#XoX$X$XhXmXMX%X$XS.s.B.6 b D =.%.+.%.%.%.%.%.2.G %.$.%.V ",
"=  .L.@.:.(.(.K.J.J.k.K.w.J.T.K.X g Y.+XeXeXiXeX!.!.!.!.{.F.E.) 0 f.[.8X].].].[.'.%X0X[.h.j.f.w b =.=.=.%.=.+.%.%.>.>.%.$.%.>.m ",
"=  .]  .^./.:.K.L.L.k.w.k.L./.X.o g x.Q.eXwX!.}.F.}.b.b.c.c.v.) 5 t.`.`.S.Z.S.B.`.[._.s.j.u.s.w m O.O.=.=.=.%.%.,.,.&.>.;.>.1.n ",
"= N E o.J.@.@.L.J.P.K.P.I.P.X.A X d x.b. X}.b.b.b.b.F.b.c.F.R.! e j.`.`.A.h.C.C.A.h.h.h.g.g.0.9 b K ;.,.>.&.;.%.>.>.;.<.%.>.J b ",
"# * y s N s s y t y y y y y y i   y E ~ E ~ ~ / ~ / / ~ ~ E T M 9 B 7.8.7.8.7.! 7.B 7.B 7.7.N # b b m m V m n n n n n n b < : % "
};
