/* XPM */
static char *result[] = {
/* columns rows colors chars-per-pixel */
"64 64 115 2 ",
"   c #5C2610",
".  c #5F2811",
"X  c #602711",
"o  c #632912",
"O  c #6C2B15",
"+  c #632E18",
"@  c #712D17",
"#  c #762E18",
"$  c #7A2F19",
"%  c #6F301B",
"&  c #763017",
"*  c #74331C",
"=  c #7D311A",
"-  c #7F381F",
";  c #6E3824",
":  c #703723",
">  c #753A24",
",  c #773D28",
"<  c #7B412D",
"1  c #85331C",
"2  c #8B351E",
"3  c #83381D",
"4  c #8E381E",
"5  c #91371F",
"6  c #92381F",
"7  c #823721",
"8  c #8D3720",
"9  c #873920",
"0  c #8D3A22",
"q  c #8F3F29",
"w  c #943B22",
"e  c #9B3D23",
"r  c #953F28",
"t  c #993F28",
"y  c #A23F23",
"u  c #82422C",
"i  c #8D442E",
"p  c #904024",
"a  c #9D4126",
"s  c #964129",
"d  c #9B432A",
"f  c #854630",
"g  c #8D4932",
"h  c #924632",
"j  c #934A34",
"k  c #9D4B33",
"l  c #944C38",
"z  c #9D4E39",
"x  c #93523B",
"c  c #9C523E",
"v  c #A44125",
"b  c #AB4325",
"n  c #A2452B",
"m  c #AD462A",
"M  c #A4482E",
"N  c #AE492D",
"B  c #B04627",
"V  c #B14628",
"C  c #B44A2A",
"Z  c #B94D2B",
"A  c #BE512D",
"S  c #A54B32",
"D  c #AC4C32",
"F  c #A24F38",
"G  c #B14D32",
"H  c #AE5036",
"J  c #A2533D",
"K  c #AC533B",
"L  c #B25036",
"P  c #BB5435",
"I  c #B5553C",
"U  c #B95539",
"Y  c #B5583F",
"T  c #BA593E",
"R  c #C15837",
"E  c #C25B3B",
"W  c #925642",
"Q  c #9E5540",
"!  c #965B47",
"~  c #9D5A45",
"^  c #965B4A",
"/  c #A35641",
"(  c #A55A44",
")  c #AD5B44",
"_  c #A45E4A",
"`  c #B75A42",
"'  c #B85D45",
"]  c #B95F48",
"[  c #9D624D",
"{  c #A5614C",
"}  c #AB624D",
"|  c #B96047",
" . c #B6634B",
".. c #BC654E",
"X. c #B6694F",
"o. c #A46756",
"O. c #AB6652",
"+. c #AE6955",
"@. c #A76C5C",
"#. c #AD6B58",
"$. c #B26752",
"%. c #BC6751",
"&. c #B26955",
"*. c #BD6A54",
"=. c #B66F5A",
"-. c #BF6F5A",
";. c #BD725D",
":. c #AE7566",
">. c #B37361",
",. c #B17C6E",
"<. c #C06C53",
"1. c #C1725D",
"2. c #C37662",
"3. c #C98675",
"4. c #CD8F7F",
/* pixels */
"O O O O O o o + O o X   X o O O @ O O @ @ @ O @ @ @ X @ # @ , +     o                                   o O O O O @ O O O O O O ",
"v n M n n b y y y e 1 X 1 n n n M t t n t t t e e t e 1 e ) ,.% $ e y y t v d d t t t d s e v S d 2 O # t n n d d d d s r r r t ",
"L I I I I I I I ` D 1 o 8 ] %.%.......%.%.%.%.....I L r L G z O 1 G ....%...%.%...<.| <.| I L I L r @ 1 G ....%.%...%.%.........",
"L I I I Y I I I L N 1 O w %.%.%.%.....%.%.%.' ` I I S k Y G z @ 1 L %...] ..%.....` Y Y I I L I I d @ 1 L %.....%.........%...| ",
"L I I I I I I I I m 1 O t ....%.......` I ` L ` I I d K I L c O 1 G ..%.$.X. .` I Y I Y I I L I I d @ 1 L %.%.......<.| ' I I I ",
"L I Y L I I I I I m 1 o t %.....%...` U L L ` L L m y S I L / O 1 D ..| I I I I I I Y L I I C I L d O 8 I %.........' Y I I I I ",
"G Y I Y I I I I I m 1 O e %.%...' L L ` ` U ` G m L G M L I / O = b I I I I I I I I I I I N D I ` d O 1 I %...%.| ` I I I I I I ",
"G I Y I I Y I I I N 1 O t ....' ` L ` L ` L V G I I I D L L / O = b b m m N N C G G D D D 4 L I ` k O 8 ` ....' I I Y I Y I L G ",
"y ` L ` L I ` U I m 1 X t ..` I I I I ` G m L I I I I G C L / O = b G L I L I I I L D M s 3 L I ` F O 2 T ..` I I I I I U G V y ",
"R L ` ` ` ` L U L m 2 o e ` I I I I L m V I I I I I I L m G ( O $ b I I I I I I I I I I L k D I ' c O 1 U I I I I I Y L V y y V ",
"y T E E I L R L V y 2 o t I I I I G m G I ` I I I Y I I m D _ O $ m I I I I I S k H I I I ..q I %.J O 1 U I U I I L m y b b V y ",
"y y y y y y y y y m $ O 5 G I G S H N L L L L I I L L L m L { o $ m I I I I H I I I I I I I W 4.3.d O 1 P U T U Z V C C B R y R ",
"y e e e e e e e w 8 $ O 1 1 2 7 #.+.+.+.+.&.&.&.&.#.#.&.#.>.o.X $ 2 F } $.$.$.&.+.+.O.O.} _ l # 1 1 O 1 e e y e v e t y y y y y ",
"1 # @ O O O o o o o     O @ @ X @ @ @ @ O % O O % O O O O * ;   O @ @ O @ @ @ @ @ @ @ @ @ # % @ @ O   * @ # @ # @ # # # $ @ @ @ ",
"X # @ # $ $ $ $ $ $ $ $ 1 $ $ $ $ $ $ $ o   O # $ = = $ = = = = $ # # # # @ @ #   o @ # $ $ $ # $ = $ $ $ $ % @ $ 1 ^ @   O @ $ ",
"X t y ` I L I I I L L L G G D m i ( e 1 @   1 y D D D G D D N H N N N N N M b e X = D K K K D H D D S D S M M w v ) o.1 X e G C ",
"o y ` G t / ` ` ` I I I I I L r #.` G w @ o w y ........%...............` L Z 6 X 1 | %.%.......%.%...%.%.` L d I D z 1 o M I I ",
"O / ` G %.` G ` L I U ` I I H Q ] L I t @ o 8 C ..%.%...%...%...%...%...| I C y X w ........%.%.%. .] I I I D S I G c 1 O D I I ",
"O / ` / ` L ` L I I ` L I ` t =.` L ` y # o 2 N ....%.....*...........%...U C e X w ......%...' ` I I I I I t S I I / $ O M I I ",
"o y ` ` ` ` L ` I I I ` L N o.' L ` ` M # o 1 G %.................%...%.%.I C y   w ........' I I I I I L m b S L L / = O S I L ",
"O t G ` L T ` y y y t t Q } %.I L ` ' D @ o 2 N ..%.................%.....I Z e   w %.%...` I I I I I G V I L M L L ( $ o n G M ",
"X y ` ` ` y y z Q } <...` I ` I ` ` ] H O o 2 G ......%.%.%.....%.....| I I C s   0 ....` I I I I L G G I I I D G G _ $ o e N G ",
"X t ` G ` q } ] L ` L ` I I I I L ` *.F @ o 2 N %.........| ' T T I I I I I C e   0  .I I I I I L m G I I I I G G G _ $ X e L I ",
"+ t ` L 8 / ` ` ` L ` I I I I ` ` L -.D O X 2 N T ' I I I I I I I I I I I L V 6   0 I I I I I G m L I I I I I I B G } $ o r I I ",
"o t L 0 ) L ` ` L ` ` L ` L ` ` L ` 1.t O X 8 V I Y I I I I I L G G N m b b B 6 X 8 I I I I H N I I I I I ` I ` m V o.= o r I I ",
"O w 8 F ` ` ` ` ] ] ] ..*.<.<.1.2.2.<.w O   w V G Y U C C C m m V V B C m V C 2 o 1 N G D J G L I I ` ` ` ` ` ` I | ~ # O 0 ` ] ",
"  O 1 5 5 5 5 5 5 5 5 5 2 2 2 2 8 5 2 1 X   y y y y y b v b b m b m b b b v v 2 X $ 1 1 * / Q Q Q Q Q Q Q z Q z c _ @.O o 1 r n ",
"  X o o o o o o o o o o o o X X o o o       o X O o o o o o o o X o X X X X X       o   X o o o X X o o o     o o o +     X o o ",
"$ $ $ $ $ # 1 $ $ # @   @ # $ 1 # $ $ 1 1 1 2 2 2 2 2 2 2 2 6 o X O O O o X X .           o o o o X   o @ $ $ $ $ $ $ $ $ $ $ $ ",
"G G G G y y Z y y y 1 o 5 ` ` F ] ` ` ` I ` I I I L L G b C v O = b H L L I I Y ` I I ` I D G L L w O 1 M I ` I ` I ) K K K K K ",
"` I I I ` C y y y y 5 O y ..%...%.%.%.<.%.......%...` L m C b O 1 L ..%...%.%...%.%.....` I L I I t @ 1 G %.%.........%.....%.%.",
"` I I I ` ` C y y y 5 @ y %.%...%.%.%.] ..%.%.....%.] I b C b O 3 L ..%./ )  ...` I I I I I L I I t @ 2 L ........%.....%...' ` ",
"` L ` L L Z y b b b 1 o M ......%.......<........... .I m V B O 1 L %.%.*...| I I I I I I I L I I d O 1 I %.....%...%.| T I I I ",
"L ` L ` U R B b b b 1 O M %...%.....%.......%.%.......I b B m O 1 m | T I I I I I I I I I L m I U d @ 1 I %...%... .I I I I I I ",
"` L E R y y b b b b 1 o n %.......%...%.............| I m B b o = b L L I I I I I I I I T v D I ` d O 2 I %...%.' I I I I I I I ",
"` L y R y y b b b b 2 X M ............%....... .| T I Y b B v O = b b b b B C m m C n n r 1 I I ` k O 2 I ....` I I I I I I H n ",
"y y y Z B y B R b b 1 X d %.....| | ' ` I I I I I I I I m B v O = b L I Y I I I I I I L G p L I ' F O 1 ` ' I I I I I I L m b b ",
"y Z V y y B y y b b 1 o n I I I T I I I I I I I I I L C b B a O $ m Y I I I I I I I I I U J d I ] / O 1 U I I I I I L C b b b b ",
"V y y V B y B y b b 1 o n I I I I I L G G m m b b b b b b B e O $ b I I I I I k F K I I I | i %.2.F O 1 U I I I I G m b b b b b ",
"y V V y y B y b b y $ O b A P P Z Z Z Z Z Z Z Z Z Z A C Z Z 2 o $ b Y I I Y K I I I ` ' | ..[ >.&.r O 1 A R E R A A Z A A A A A ",
"y 5 2 2 2 2 2 2 2 1 @ O 6 e 6 e r w w 6 6 6 6 e 6 6 6 6 6 6 1 X $ 1 w z Q Q c Q c c l j h s 7 = 1 1 O 2 2 2 2 2 2 2 4 2 2 4 2 2 ",
"o X X X X X X X         o o o O o O o X o o X X   . o o o O     X X X X o o X X X X o o X o o o X .   X o o o O O o o X o o o o ",
"X 1 1 2 1 2 2 2 2 0 4 w 5 5 2 5 5 5 5 e O   $ 5 6 w 0 w 2 O & e a a a a a a r 1 o O 1 1 2 1 2 2 8 2 2 2 2 2 2 2 2 2 6 1   $ 0 0 ",
"X 2 y ` ] ` ` ` ` ` I I I I L L G b V m @ . N I Y I I H j Y k L I I I I I I L y   $ y G ` ' ' ` ` ` ` I I I I L L m C 1 o w L I ",
"O 5 ] %.%.] %.%...<.....<.....| I m B B @ o L I Y I I s 0 0 e G I I I I I I I e o 1 y ' %.%.....%.....%.%.......I G C 1 O r L I ",
"o 5 ] %.%.%.%.%...%........... .I m B C @ o I I I I S ! ` I c 9 D I I I I ` I w o $ y ] %...%...%.%.%.......%...` G Z 1 o r I I ",
"o 5 ] %.%...] %............... .I m m V @ o L I L j O.H I I G / 7 C I I I I I e   $ y ] ..%...........%...%.....' L Z 1 o w I I ",
"o 5 ] ......%.%.%...........%.%.I m m C @ o L I u } L I I I I L ) > N I I I I t   1 y ] ......%....... ...%...%.] L Z 1 + w I ` ",
"o 5 ] %.....%.%...%...%...%.%.] I m m B O o d , K I I I I I I I L  .* n I I ` d   $ v | ......%.%...<.......%...` G Z 1 o w L I ",
"X 5 ] %.%.............] ] ' ` ` I m m b & X > L I I I I I I I I I L X.* L I ` d   $ v | %.%...............| ` ` I L Z = o w I I ",
"X 2 ..%.] ] ] ` ` ` I I I I L ` I m m b O . n I I I I I I I I I I I I f I I | d   $ v | ....| | ' ` T I I I I I I G Z $ o 8 I I ",
"X 5 L ` I I ` I U ` I I I ` U G C b m v O . n I I I I I I I I I I I I j ..I -.a   = v I I I I I I I I I U I Y L L m Z $ o 8 L I ",
"X 5 ` I I I U I R y V V y y y y b b b y @   t I I I I I I I I I I I I =.;.I 2.r o = v L I I I I L L G m m b b b b b C $ o 9 m 0 ",
"o e Z P P Z Z C y R R y R V R R Z Z Z w O   8 ..-.-.%.%.......%.*.%.%.1.L -.I 1 O 1 B C L P Z Z Z Z Z Z Z Z Z Z Z Z b # O 1 7 n ",
"o 5 5 5 w 5 w w y 6 2 5 2 2 5 5 5 6 5 1     1 1 2 2 2 2 2 2 2 1 2 1 1 1 1 $ = #   1 6 6 2 6 5 4 5 2 5 2 6 2 4 2 2 2 w o X O = 1 ",
"X X   X         X X     X X X X           X o   X     X X X .                                                     .   X         ",
"2 5 5 2 5 2 2 2 2 2 $ X 1 2 8 2 8 2 2 2 2 1 8 1 1 1 = = 2 z ,.: O 1 1 = = = & & @ @ * @ @ & = - = @ o O 1 2 2 2 2 1 1 1 1 1 1 2 ",
"L I ` I I I I L G y 1 o 2 ` ....| ....| ..] | ] ` I H r D D / @ 1 m ` ' | | ..| | ..| ..| I L I I t @ 1 D | ....| ..| ....| ] ] ",
"L I I I I I I I U G 1 O w ......%.........%...| ` Y D s I G z O 1 L ............%.| ' ' I I L I I r @ 1 L ....%.%.........%.%.%.",
"L I I I I I I I U N 1 o w ..%.......%...' I I I Y I k K I L J O 1 L %...) } X.| ` I I I I I L I I t @ 2 L ....%...%.%...| ` ` I ",
"L L ` L I I U I ` m 1 O e ..........' I I I I I L G e S I I J O 1 G ....| ` I I I I I I I I G I I d @ 1 I ..%...%.....` I I I I ",
"G ` L ` I I ` I ` m 1 O t <.......` I I I I I I V G N M I I J O = m ` I I I I I I I I I I G m ` I d O 2 I ........' I I I I ` I ",
"G L ` L I I I I L y 1 o t ....] I I I I I I G m L I L N L L J O = b N G G L L I I I I I I e L I ` k O 2 Y ......Y I I I ` I I L ",
"G ` L ` I I I ` ` N 2 o y %.' ` ` I I I L C D I I I I D G L / O $ b m D C G G G C N v w 4 $ L I ` k O 2 ` ..] I I I I I I L N b "
};
